<?xml version="1.0" encoding="UTF-8" standalone="no"?>
<svg
   xmlns:dc="http://purl.org/dc/elements/1.1/"
   xmlns:cc="http://creativecommons.org/ns#"
   xmlns:rdf="http://www.w3.org/1999/02/22-rdf-syntax-ns#"
   xmlns:svg="http://www.w3.org/2000/svg"
   xmlns="http://www.w3.org/2000/svg"
   xmlns:sodipodi="http://sodipodi.sourceforge.net/DTD/sodipodi-0.dtd"
   xmlns:inkscape="http://www.inkscape.org/namespaces/inkscape"
   width="807.20599"
   height="570.90002"
   viewBox="0 0 213.57325 151.05064"
   version="1.1"
   id="svg8"
   inkscape:version="1.0.1 (0767f8302a, 2020-10-17)"
   sodipodi:docname="logo.svg">
  <defs
     id="defs2" />
  <sodipodi:namedview
     id="base"
     pagecolor="#ffffff"
     bordercolor="#666666"
     borderopacity="1.0"
     inkscape:pageopacity="0.0"
     inkscape:pageshadow="2"
     inkscape:zoom="0.35"
     inkscape:cx="310.67379"
     inkscape:cy="526.65564"
     inkscape:document-units="px"
     inkscape:current-layer="layer1"
     inkscape:document-rotation="0"
     showgrid="false"
     inkscape:window-width="1366"
     inkscape:window-height="704"
     inkscape:window-x="0"
     inkscape:window-y="27"
     inkscape:window-maximized="1"
     inkscape:showpageshadow="false"
     units="px" />
  <metadata
     id="metadata5">
    <rdf:RDF>
      <cc:Work
         rdf:about="">
        <dc:format>image/svg+xml</dc:format>
        <dc:type
           rdf:resource="http://purl.org/dc/dcmitype/StillImage" />
        <dc:title></dc:title>
      </cc:Work>
    </rdf:RDF>
  </metadata>
  <g
     inkscape:label="Layer 1"
     inkscape:groupmode="layer"
     id="layer1">
    <g
       id="g28148"
       transform="translate(17.564894,233.6506)">
      <rect
         y="-120.62434"
         width="213.57336"
         height="2.0321145"
         fill="#3f3d56"
         id="rect27781"
         x="-17.564947"
         style="stroke-width:0.494341" />
      <path
         d="m 94.934373,-198.10302 c 0,0 -1.66304,-12.19558 -4.43475,-8.86951 -2.77172,3.32607 0,8.31516 0,8.31516 l 2.21737,2.77172 2.21738,-1.66303 z"
         fill="#9f616a"
         id="path27783"
         style="stroke-width:0.264583" />
      <path
         d="m 101.58651,-194.22262 c 0,0 -5.543437,-6.09778 -6.652127,-4.98909 -1.10869,1.10869 -4.43475,1.66303 -3.88041,3.88041 0.55435,2.21737 12.195567,9.42385 12.195567,9.42385 z"
         fill="#655eb0"
         id="path27785"
         style="stroke-width:0.264583" />
      <path
         d="m 101.58651,-194.22262 c 0,0 -5.543437,-6.09778 -6.652127,-4.98909 -1.10869,1.10869 -4.43475,1.66303 -3.88041,3.88041 0.55435,2.21737 12.195567,9.42385 12.195567,9.42385 z"
         opacity="0.1"
         id="path27787"
         style="stroke-width:0.264583" />
      <path
         d="m 133.18411,-194.77696 v 4.43475 c 0,0 0.55434,9.9782 -2.77172,9.42385 -3.32606,-0.55434 -1.66303,-8.86949 -1.66303,-8.86949 l 0.55434,-4.9891 z"
         fill="#9f616a"
         id="path27789"
         style="stroke-width:0.264583" />
      <path
         d="m 131.52108,-162.625 c 0,0 4.98911,7.76082 6.65213,8.31516 1.66302,0.55433 10.53253,5.54344 11.64122,10.53253 l 7.76082,9.9782 -3.88041,4.9891 c 0,0 -17.73901,-18.8477 -22.7281,-20.51074 -4.9891,-1.66303 -9.9782,-9.97819 -9.9782,-9.97819 z"
         fill="#9f616a"
         id="path27791"
         style="stroke-width:0.264583" />
      <path
         d="m 92.162653,-175.37492 c 0,0 -10.53254,1.66303 -8.86951,8.31516 1.66303,6.65213 17.739007,20.51074 17.739007,20.51074 l 0.55436,3.32606 6.09778,1.10869 2.77172,-2.77172 -0.55434,-1.66303 c 0,0 -6.65214,-6.09779 -7.20649,-8.31516 -0.55434,-2.21736 -6.652117,-11.08688 -9.423847,-11.64122 l 3.88041,-2.21738 z"
         fill="#9f616a"
         id="path27793"
         style="stroke-width:0.264583" />
      <path
         d="m 155.91222,-133.79911 c 0,0 -2.21738,-3.32606 1.10868,-2.77172 3.32607,0.55434 5.54345,1.10869 5.54345,3.32608 0,2.21738 -2.77172,17.73901 -6.09779,16.63032 -3.32607,-1.10869 -0.55434,-6.09779 -0.55434,-6.09779 0,0 -1.66303,-4.43475 -2.77172,-4.9891 -1.10869,-0.55434 -1.10869,-3.32606 0,-3.32606 1.10869,0 3.32606,-1.66304 2.77172,-2.77173 z"
         fill="#2f2e41"
         id="path27795"
         style="stroke-width:0.264583" />
      <path
         d="m 108.79296,-145.99468 c 0,0 0,-2.77172 2.21738,0 2.21737,2.77172 3.32608,4.9891 1.10869,6.65213 -2.21739,1.66303 -9.97819,5.54344 -9.97819,5.54344 0,0 -8.315157,1.66303 -7.206467,-2.21738 0,0 5.543437,-2.77172 5.543437,-4.98909 0,-2.21738 0,-6.09779 1.66303,-4.9891 1.66303,1.10868 6.65212,1.66304 6.65212,0 z"
         fill="#2f2e41"
         id="path27797"
         style="stroke-width:0.264583" />
      <path
         d="m 119.3255,-187.57049 c 0,0 7.76082,1.10869 7.20647,12.19557 0,0 9.9782,9.9782 7.20647,13.30426 -2.77172,3.32607 -8.8695,9.42385 -11.08688,7.76082 -2.21737,-1.66304 -8.86949,-14.41295 -8.86949,-14.41295 0,0 -15.521637,5.54345 -18.293357,2.77173 -2.77172,-2.77172 -5.54344,-9.42385 -5.54344,-9.42385 l 13.858607,-7.20648 z"
         fill="#2f2e41"
         id="path27799"
         style="stroke-width:0.264583" />
      <circle
         cx="97.706108"
         cy="-225.82022"
         r="6.6521306"
         fill="#9f616a"
         id="circle27801"
         style="stroke-width:0.264583" />
      <path
         d="m 102.69518,-225.26588 c 0,0 3.88041,6.09778 4.9891,6.65212 1.10869,0.55435 -7.760817,6.09779 -7.760817,6.09779 0,0 0,-7.20648 -2.77172,-8.86951 z"
         fill="#9f616a"
         id="path27803"
         style="stroke-width:0.264583" />
      <path
         d="m 103.24953,-219.1681 c 0,0 8.8695,-2.77172 10.53253,1.66303 1.66303,4.43475 5.54344,12.74992 4.9891,18.29336 -0.55433,5.54344 -1.66303,4.43475 0,6.09778 1.66304,1.66304 2.77172,0.55435 2.21738,2.77172 -0.55435,2.21738 -1.10869,2.21738 -0.55435,3.32607 0.55435,1.10868 -6.65212,4.98909 -12.74991,5.54344 l -6.09777,0.55434 c 0,0 0,-9.97819 -1.10869,-12.19557 -1.108677,-2.21737 -3.326067,-6.65213 -3.326067,-8.31516 v -4.40024 a 16.829272,16.829272 0 0 1 2.21737,-8.34967 v 0 c 0,0 3.326057,-4.9891 3.880407,-4.9891 z"
         fill="#655eb0"
         id="path27805"
         style="stroke-width:0.264583" />
      <path
         d="m 109.90166,-216.95072 c 0,0 20.51073,1.66303 22.72811,7.20647 2.21737,5.54344 3.32606,16.63032 1.10868,16.63032 -2.21737,0 -4.98909,1.10869 -5.54344,0 -0.55434,-1.10869 -2.77172,-12.19557 -3.32607,-12.19557 -0.55436,0 -17.18466,-1.66304 -17.18466,-1.66304 0,0 -7.20647,-8.86949 2.21738,-9.97818 z"
         fill="#655eb0"
         id="path27807"
         style="stroke-width:0.264583" />
      <path
         d="m 97.438813,-227.46938 c 0,0 -1.76528,-3.06774 -3.97186,-0.40313 -2.20657,2.66461 -5.79622,-2.23208 -5.24516,-3.27693 0.55105,-1.04485 2.49705,0.047 5.83198,-1.04321 3.33492,-1.09019 9.759047,-3.31112 10.834947,3.93364 1.07589,7.24475 -1.4865,6.48524 -1.4865,6.48524 0,0 -1.17453,-6.41963 -2.23606,-4.57564 l -1.06154,1.844 -0.920797,0.22663 z"
         fill="#2f2e41"
         id="path27809"
         style="stroke-width:0.264583" />
      <path
         d="m 46.757162,-93.646616 v 10.250078 h -4.717164 v -25.678402 h 4.717164 v 9.682605 q 1.560566,-1.915235 4.717164,-1.915235 3.192066,0 4.823566,1.950702 1.666968,1.91524 1.666968,4.965436 v 10.994894 h -4.717164 v -10.179143 q 0,-1.560566 -0.81575,-2.518186 -0.780283,-0.95762 -2.411783,-0.95762 -1.454164,0 -2.340849,0.95762 -0.851217,0.922153 -0.922152,2.447251 z"
         style="font-style:normal;font-variant:normal;font-weight:bold;font-stretch:normal;font-size:35.4674px;line-height:1.25;font-family:'Circular Air';-inkscape-font-specification:'Circular Air, Bold';font-variant-ligatures:normal;font-variant-caps:normal;font-variant-numeric:normal;font-variant-east-asian:normal;stroke-width:0.886687"
         id="path27899" />
      <path
         d="m 66.192744,-94.107692 h 7.802828 q -0.106403,-1.454164 -1.064022,-2.447251 -0.95762,-0.993087 -2.837392,-0.993087 -1.702436,0 -2.766458,1.064022 -1.028554,1.064022 -1.134956,2.376316 z m 8.263904,4.539827 3.936881,1.170424 q -0.67388,2.411783 -2.801924,3.972349 -2.092577,1.560565 -5.142773,1.560565 -3.759545,0 -6.384132,-2.518185 -2.624588,-2.553653 -2.624588,-6.809741 0,-4.043283 2.553653,-6.596936 2.553653,-2.589121 6.029458,-2.589121 4.043283,0 6.313197,2.411784 2.305381,2.376316 2.305381,6.632404 0,0.283739 -0.03547,0.638413 0,0.319206 -0.03547,0.567478 0,0.212805 0,0.248272 h -12.48452 q 0.07093,1.702435 1.347762,2.837392 1.276826,1.134957 3.050196,1.134957 3.014729,0 3.972349,-2.660055 z"
         style="font-style:normal;font-variant:normal;font-weight:bold;font-stretch:normal;font-size:35.4674px;line-height:1.25;font-family:'Circular Air';-inkscape-font-specification:'Circular Air, Bold';font-variant-ligatures:normal;font-variant-caps:normal;font-variant-numeric:normal;font-variant-east-asian:normal;stroke-width:0.886687"
         id="path27901" />
      <path
         d="m 81.292435,-88.149169 q 0,-2.234447 1.418696,-3.582208 1.454164,-1.347761 3.795012,-1.702435 l 4.291556,-0.638413 q 1.312293,-0.177337 1.312293,-1.241359 0,-0.993087 -0.780282,-1.6315 -0.744816,-0.638414 -2.163512,-0.638414 -1.489631,0 -2.376316,0.815751 -0.851217,0.81575 -0.957619,2.021641 l -4.185154,-0.886685 q 0.248272,-2.269913 2.198979,-4.007816 1.986175,-1.737903 5.284643,-1.737903 3.901414,0 5.745719,1.879773 1.844304,1.844305 1.844304,4.752631 v 8.583111 q 0,1.560566 0.212805,2.766457 h -4.327023 q -0.177337,-0.780283 -0.177337,-2.092576 -1.666968,2.58912 -5.142773,2.58912 -2.695522,0 -4.36249,-1.560566 -1.631501,-1.560565 -1.631501,-3.688609 z m 6.987078,1.737902 q 1.666968,0 2.73099,-0.922152 1.099489,-0.95762 1.099489,-3.121131 v -0.780283 l -3.936881,0.602946 q -2.163511,0.319206 -2.163511,2.198978 0,0.851218 0.602945,1.454164 0.602946,0.567478 1.666968,0.567478 z"
         style="font-style:normal;font-variant:normal;font-weight:bold;font-stretch:normal;font-size:35.4674px;line-height:1.25;font-family:'Circular Air';-inkscape-font-specification:'Circular Air, Bold';font-variant-ligatures:normal;font-variant-caps:normal;font-variant-numeric:normal;font-variant-east-asian:normal;stroke-width:0.886687"
         id="path27903" />
      <path
         d="m 118.04054,-109.07494 v 22.521804 q 0,2.198978 0.14187,3.156598 h -4.50436 q -0.17734,-0.638413 -0.17734,-2.021642 -1.45416,2.447251 -4.8945,2.447251 -3.72407,0 -6.13586,-2.58912 -2.37631,-2.624588 -2.37631,-6.596936 0,-3.865947 2.34085,-6.490535 2.37631,-2.62459 6.02945,-2.62459 2.02165,0 3.263,0.67388 1.24136,0.638417 1.66697,1.489634 v -9.966344 z m -13.19387,16.917955 q 0,2.30538 1.20589,3.653142 1.20589,1.312293 3.12113,1.312293 1.87977,0 3.08567,-1.347761 1.20589,-1.347761 1.20589,-3.653142 0,-2.269913 -1.20589,-3.54674 -1.2059,-1.312294 -3.08567,-1.312294 -1.87977,0 -3.12113,1.312294 -1.20589,1.312294 -1.20589,3.582208 z"
         style="font-style:normal;font-variant:normal;font-weight:bold;font-stretch:normal;font-size:35.4674px;line-height:1.25;font-family:'Circular Air';-inkscape-font-specification:'Circular Air, Bold';font-variant-ligatures:normal;font-variant-caps:normal;font-variant-numeric:normal;font-variant-east-asian:normal;stroke-width:0.886687"
         id="path27905" />
      <path
         d="m 121.6682,-88.255572 4.04328,-0.886685 q 0.0709,1.134957 0.88668,1.91524 0.81575,0.744815 2.30538,0.744815 1.13496,0 1.70244,-0.496543 0.60295,-0.496544 0.60295,-1.241359 0,-1.312294 -1.87978,-1.702435 l -2.30538,-0.532011 q -2.44725,-0.532011 -3.68861,-1.91524 -1.20589,-1.383228 -1.20589,-3.298468 0,-2.376316 1.84431,-4.043284 1.87977,-1.666968 4.68169,-1.666968 3.29847,0 4.96544,1.631501 1.70243,1.596033 1.87977,3.40487 l -3.93688,0.886685 q -0.39014,-2.340848 -2.87286,-2.340848 -0.92215,0 -1.59603,0.496544 -0.63842,0.496543 -0.63842,1.241359 0,1.276826 1.59604,1.560565 l 2.48272,0.532011 q 2.51818,0.532011 3.83047,1.950707 1.34777,1.418696 1.34777,3.40487 0,2.340849 -1.77337,4.043284 -1.77337,1.702435 -5.00091,1.702435 -1.8443,0 -3.29847,-0.532011 -1.45416,-0.567478 -2.26991,-1.418696 -0.78028,-0.886685 -1.20589,-1.737902 -0.42561,-0.886685 -0.49654,-1.702436 z"
         style="font-style:normal;font-variant:normal;font-weight:bold;font-stretch:normal;font-size:35.4674px;line-height:1.25;font-family:'Circular Air';-inkscape-font-specification:'Circular Air, Bold';font-variant-ligatures:normal;font-variant-caps:normal;font-variant-numeric:normal;font-variant-east-asian:normal;fill:#4b0091;fill-opacity:1;stroke-width:0.886687"
         id="path27907" />
      <path
         d="m 145.32273,-106.06021 v 5.21371 h 3.51127 v 4.185155 h -3.51127 v 7.306284 q 0,1.099489 0.49654,1.560566 0.49655,0.461076 1.56057,0.461076 1.13496,0 1.45416,-0.14187 v 3.901414 q -1.02855,0.425609 -2.66005,0.425609 -2.55365,0 -4.04328,-1.418696 -1.48964,-1.418696 -1.48964,-3.972349 v -8.122034 h -3.15659 v -4.185155 h 0.88668 q 1.31229,0 1.98618,-0.74481 0.70934,-0.78029 0.70934,-2.02165 v -2.44725 z"
         style="font-style:normal;font-variant:normal;font-weight:bold;font-stretch:normal;font-size:35.4674px;line-height:1.25;font-family:'Circular Air';-inkscape-font-specification:'Circular Air, Bold';font-variant-ligatures:normal;font-variant-caps:normal;font-variant-numeric:normal;font-variant-east-asian:normal;fill:#4b0091;fill-opacity:1;stroke-width:0.886687"
         id="path27909" />
      <path
         d="m 151.88088,-88.149169 q 0,-2.234447 1.41869,-3.582208 1.45416,-1.347761 3.79501,-1.702435 l 4.29156,-0.638413 q 1.31229,-0.177337 1.31229,-1.241359 0,-0.993087 -0.78028,-1.6315 -0.74482,-0.638414 -2.16351,-0.638414 -1.48963,0 -2.37632,0.815751 -0.85122,0.81575 -0.95762,2.021641 l -4.18515,-0.886685 q 0.24827,-2.269913 2.19898,-4.007816 1.98617,-1.737903 5.28464,-1.737903 3.90141,0 5.74572,1.879773 1.8443,1.844305 1.8443,4.752631 v 8.583111 q 0,1.560566 0.21281,2.766457 h -4.32702 q -0.17734,-0.780283 -0.17734,-2.092576 -1.66697,2.58912 -5.14277,2.58912 -2.69553,0 -4.36249,-1.560566 -1.6315,-1.560565 -1.6315,-3.688609 z m 6.98707,1.737902 q 1.66697,0 2.73099,-0.922152 1.09949,-0.95762 1.09949,-3.121131 v -0.780283 l -3.93688,0.602946 q -2.16351,0.319206 -2.16351,2.198978 0,0.851218 0.60295,1.454164 0.60294,0.567478 1.66696,0.567478 z"
         style="font-style:normal;font-variant:normal;font-weight:bold;font-stretch:normal;font-size:35.4674px;line-height:1.25;font-family:'Circular Air';-inkscape-font-specification:'Circular Air, Bold';font-variant-ligatures:normal;font-variant-caps:normal;font-variant-numeric:normal;font-variant-east-asian:normal;fill:#4b0091;fill-opacity:1;stroke-width:0.886687"
         id="path27911" />
      <path
         d="m 182.70427,-100.91743 v 4.752628 q -0.60295,-0.141869 -1.4187,-0.141869 -2.02164,0 -3.263,1.170424 -1.24136,1.134957 -1.24136,3.759544 v 7.980165 h -4.71716 V -100.8465 h 4.57529 v 2.589122 q 1.27683,-2.730992 4.96544,-2.730992 0.3192,0 1.09949,0.0709 z"
         style="font-style:normal;font-variant:normal;font-weight:bold;font-stretch:normal;font-size:35.4674px;line-height:1.25;font-family:'Circular Air';-inkscape-font-specification:'Circular Air, Bold';font-variant-ligatures:normal;font-variant-caps:normal;font-variant-numeric:normal;font-variant-east-asian:normal;fill:#4b0091;fill-opacity:1;stroke-width:0.886687"
         id="path27913" />
      <path
         d="m 192.49714,-106.06021 v 5.21371 h 3.51127 v 4.185155 h -3.51127 v 7.306284 q 0,1.099489 0.49654,1.560566 0.49655,0.461076 1.56057,0.461076 1.13495,0 1.45416,-0.14187 v 3.901414 q -1.02855,0.425609 -2.66005,0.425609 -2.55366,0 -4.04329,-1.418696 -1.48963,-1.418696 -1.48963,-3.972349 v -8.122034 h -3.1566 v -4.185155 h 0.88669 q 1.31229,0 1.98617,-0.74481 0.70935,-0.78029 0.70935,-2.02165 v -2.44725 z"
         style="font-style:normal;font-variant:normal;font-weight:bold;font-stretch:normal;font-size:35.4674px;line-height:1.25;font-family:'Circular Air';-inkscape-font-specification:'Circular Air, Bold';font-variant-ligatures:normal;font-variant-caps:normal;font-variant-numeric:normal;font-variant-east-asian:normal;fill:#4b0091;fill-opacity:1;stroke-width:0.886687"
         id="path27915" />
    </g>
  </g>
</svg>
